<svg width="200" height="64" viewBox="0 0 200 64" fill="none" xmlns="http://www.w3.org/2000/svg">
<path d="M6.7532 3.65218C2.51835 6.4338 0.0589683 11.2754 0.00189457 16.9362C0.00118411 17.0494 0 17.1575 0 17.265C0 23.6668 2.75825 27.287 5.09828 29.2077C9.51072 32.8291 15.3382 33.0684 19.3198 32.0851L20.6711 31.75V23.9354L18.2868 24.8497C16.6414 25.4831 14.3038 25.2842 13.931 24.8131L13.9511 8.9954C13.9511 8.66285 14.0316 8.62244 14.174 8.54474C15.134 8.04436 17.4004 8.49812 18.1206 9.03517L20.9238 11.1281V3.06727L19.882 2.58864C15.6437 0.641193 10.7351 1.03776 6.7532 3.65218Z" fill="#B3D918"/>
<path d="M66.9828 1.45422H61.986C61.986 1.45422 61.986 7.2543 61.986 11.0112C59.142 7.09766 55.0407 1.45422 55.0407 1.45422H45.7432V32.5419H52.4C52.4 32.5419 52.4 27.1017 52.4 23.581C55.0639 27.3392 58.7531 32.5419 58.7531 32.5419H68.7482V1.45422H66.9828Z" fill="#B3D918"/>
<path d="M150.272 1.45422H145.274C145.274 1.45422 145.274 7.2543 145.274 11.0112C142.429 7.09766 138.33 1.45422 138.33 1.45422H128.993V32.5419H135.724C135.724 32.5419 135.724 27.1017 135.724 23.581C138.388 27.3373 142.079 32.5419 142.079 32.5419H152.035V1.45422H150.272Z" fill="#B3D918"/>
<path d="M88.1463 1.45422H69.71V32.5419H84.1268C84.1268 32.5419 84.1268 22.7879 84.1268 20.1461C85.8323 20.1461 89.9118 20.1461 89.9118 20.1461V12.8318C89.9118 12.8318 85.7243 12.8318 83.9826 12.8318C83.9826 11.5265 83.9826 10.7253 83.9826 9.42241C85.7243 9.42241 89.9118 9.42241 89.9118 9.42241V1.45422H88.1463Z" fill="#B3D918"/>
<path d="M101.835 1.45422H89.293V32.5419H103.602V1.45422H101.835Z" fill="#B3D918"/>
<path d="M17.7168 17.0798C17.7168 25.6951 23.9887 32.7041 31.6996 32.7041C39.4088 32.7041 45.6817 25.6951 45.6817 17.0798C45.6817 8.46451 39.4088 1.4542 31.6996 1.4542C23.9887 1.4542 17.7168 8.46451 17.7168 17.0798Z" fill="#B3D918"/>
<path d="M119.155 1.45422H111.828L101.295 32.5419H109.817C109.817 32.5419 110.329 30.4994 110.499 29.8175C111.627 29.8175 112.541 29.8175 113.611 29.8175C113.856 30.5578 114.511 32.5419 114.511 32.5419H130.434L120.429 1.45422H119.155Z" fill="#B3D918"/>
<path d="M188.682 1.45422H181.429L170.893 32.5419H179.417C179.417 32.5419 179.93 30.4776 180.102 29.7758C181.23 29.7758 182.134 29.7758 183.204 29.7758C183.449 30.5311 184.104 32.5419 184.104 32.5419H200L189.958 1.45422H188.682Z" fill="#B3D918"/>
<path d="M158.734 3.65215C154.499 6.43253 152.036 11.2754 151.981 16.9362C151.979 17.0462 151.979 17.1538 151.979 17.2625C151.979 23.4194 154.556 27.4622 157.974 29.838C157.946 30.0232 157.163 34.9226 157.163 34.9226H167.071C167.071 34.9226 167.386 32.9484 167.449 32.5649C168.754 32.5394 170.062 32.3896 171.296 32.085L172.648 31.7537V23.9353L170.264 24.8497C168.621 25.4831 166.284 25.2842 165.911 24.8143L165.932 8.99537C165.932 8.66282 166.011 8.62242 166.154 8.54472C167.115 8.04433 169.378 8.49871 170.098 9.03514L172.905 11.128V3.06724L171.861 2.58862C167.623 0.641167 162.718 1.03773 158.734 3.65215Z" fill="#B3D918"/>
<path d="M1.767 16.9568C1.58655 28.9435 11.8288 32.0733 18.9048 30.326V26.5454C16.6789 27.4014 12.1862 27.4014 12.1862 24.8398V8.99542C12.1862 5.5002 17.5764 6.39342 19.1579 7.57258V4.24084C11.6476 0.786654 1.87547 5.98814 1.767 16.9568Z" fill="#253B7D"/>
<path d="M63.7479 16.47L54.1558 3.26488H47.5088V30.7324H50.6345V18.0134L59.6527 30.7324H66.9829V3.26488H63.7479V16.47Z" fill="#253B7D"/>
<path d="M147.036 16.47L137.445 3.26488H130.759V30.7324H133.959V18.0134L142.978 30.7324H150.273V3.26488H147.036V16.47Z" fill="#253B7D"/>
<path d="M71.4756 30.7324H82.3634V18.3397H88.1471V14.6394H82.2204V7.61231H88.1471V3.26488H71.4756V30.7324Z" fill="#253B7D"/>
<path d="M91.0557 30.7324H101.834V3.26488H91.0557V30.7324Z" fill="#253B7D"/>
<path d="M33.4941 25.7318C33.4941 26.6672 32.7756 27.4405 31.8416 27.4405C30.9445 27.4405 30.2246 26.6672 30.2246 25.7318V8.5472C30.2246 7.57254 30.9445 6.84155 31.8416 6.84155C32.7756 6.84155 33.4941 7.57254 33.4941 8.5472V25.7318ZM31.6988 3.26491C24.9792 3.26491 19.4814 9.48207 19.4814 17.0798C19.4814 24.6744 24.9792 30.8953 31.6988 30.8953C38.4167 30.8953 43.9147 24.6744 43.9147 17.0798C43.9147 9.48207 38.4167 3.26491 31.6988 3.26491Z" fill="#253B7D"/>
<path d="M110.462 24.2293L112.078 18.5436L113.548 24.2293H110.462ZM113.084 3.26488L103.776 30.7324H108.448L109.131 28.0074H114.878L115.779 30.7324H127.995L119.156 3.26488H113.084Z" fill="#253B7D"/>
<path d="M180.021 24.1877L181.532 18.4578L183.147 24.1877H180.021ZM188.682 3.26488H182.684L173.375 30.7324H178.045L178.728 27.967H184.478L185.377 30.7324H197.557L188.682 3.26488Z" fill="#253B7D"/>
<path d="M153.748 16.9567C153.617 25.6472 158.967 29.6814 164.616 30.5758H159.648L159.242 33.1132H165.571L165.953 30.7306C167.652 30.8549 169.345 30.7045 170.886 30.3259V26.5454C168.659 27.4013 164.167 27.4013 164.167 24.8398V8.99539C164.167 5.50017 169.558 6.39339 171.138 7.57255V4.24081C163.628 0.786625 153.855 5.98811 153.748 16.9567Z" fill="#253B7D"/>
<path d="M199.822 42.4998H2.38574V35.5255H199.822V42.4998Z" fill="#B5DC17"/>
<path d="M106.371 40.8371V53.1608H109.924C111.743 53.1608 113.011 52.2433 113.729 50.4065C114.12 49.3989 114.317 48.1992 114.317 46.8068C114.317 44.8855 114.023 43.4105 113.435 42.3817C112.847 41.3517 111.677 40.8371 109.924 40.8371H106.371ZM113.426 37.9678C114.718 38.4029 115.764 39.2017 116.565 40.364C117.206 41.3033 117.644 42.3196 117.877 43.4123C118.111 44.5051 118.228 45.5475 118.228 46.5383C118.228 49.0489 117.736 51.1754 116.752 52.9177C115.418 55.2661 113.359 56.4403 110.575 56.4403H102.635V37.5582H110.575C111.717 37.5749 112.667 37.7117 113.426 37.9678Z" fill="#C7171D"/>
<path d="M124.374 45.9136C123.871 46.4463 123.554 47.1661 123.426 48.0755H129.56C129.496 47.1058 129.179 46.3711 128.612 45.8689C128.044 45.3666 127.34 45.1161 126.5 45.1161C125.586 45.1161 124.877 45.3821 124.374 45.9136ZM129.701 42.7603C130.651 43.196 131.436 43.8847 132.055 44.8252C132.613 45.655 132.975 46.6172 133.139 47.7125C133.236 48.354 133.275 49.277 133.257 50.4842H123.338C123.393 51.8846 123.868 52.8661 124.762 53.4299C125.307 53.7805 125.961 53.9551 126.726 53.9551C127.537 53.9551 128.196 53.7419 128.703 53.3143C128.979 53.0843 129.224 52.7642 129.436 52.3539H133.072C132.976 53.1831 132.535 54.0235 131.751 54.8776C130.531 56.2358 128.823 56.9152 126.628 56.9152C124.815 56.9152 123.216 56.3421 121.83 55.1965C120.445 54.0509 119.752 52.1873 119.752 49.6065C119.752 47.1872 120.378 45.333 121.628 44.0414C122.879 42.7509 124.502 42.1057 126.498 42.1057C127.684 42.1057 128.751 42.3239 129.701 42.7603Z" fill="#C7171D"/>
<path d="M138.694 56.4403H135.133V37.5582H138.694V56.4403Z" fill="#C7171D"/>
<path d="M142.217 42.4775H145.828V56.4403H142.217V42.4775ZM145.828 40.8116H142.217V37.4426H145.828V40.8116Z" fill="#C7171D"/>
<path d="M157.667 42.4774H161.49L156.572 56.4403H152.818L147.934 42.4774H151.932L154.768 52.7766L157.667 42.4774Z" fill="#C7171D"/>
<path d="M167.054 45.9136C166.551 46.4463 166.235 47.1661 166.106 48.0755H172.24C172.176 47.1058 171.86 46.3711 171.292 45.8689C170.724 45.3666 170.02 45.1161 169.18 45.1161C168.266 45.1161 167.557 45.3821 167.054 45.9136ZM172.381 42.7603C173.331 43.196 174.116 43.8847 174.735 44.8252C175.293 45.655 175.655 46.6172 175.82 47.7125C175.916 48.354 175.955 49.277 175.938 50.4842H166.018C166.074 51.8846 166.549 52.8661 167.443 53.4299C167.987 53.7805 168.641 53.9551 169.406 53.9551C170.217 53.9551 170.876 53.7419 171.383 53.3143C171.66 53.0843 171.904 52.7642 172.116 52.3539H175.752C175.656 53.1831 175.216 54.0235 174.431 54.8776C173.211 56.2358 171.503 56.9152 169.308 56.9152C167.495 56.9152 165.896 56.3421 164.51 55.1965C163.125 54.0509 162.433 52.1873 162.433 49.6065C162.433 47.1872 163.058 45.333 164.308 44.0414C165.559 42.7509 167.183 42.1057 169.178 42.1057C170.364 42.1057 171.432 42.3239 172.381 42.7603Z" fill="#C7171D"/>
<path d="M185.304 42.1511C185.35 42.1542 185.452 42.1611 185.61 42.1698V45.9105C185.385 45.8844 185.185 45.8676 185.01 45.8589C184.836 45.8508 184.694 45.8465 184.585 45.8465C183.153 45.8465 182.191 46.3245 181.699 47.2811C181.424 47.8194 181.287 48.6474 181.287 49.7669V56.4403H177.701V42.4774H181.099V44.911C181.649 43.9805 182.128 43.3439 182.537 43.0021C183.203 42.4302 184.069 42.1443 185.135 42.1443C185.202 42.1443 185.258 42.1461 185.304 42.1511Z" fill="#C7171D"/>
<path d="M188.234 59.1174L188.684 59.1436C189.034 59.161 189.367 59.1473 189.684 59.105C190 59.0627 190.267 58.9639 190.483 58.8098C190.691 58.6656 190.885 58.3622 191.064 57.9004C191.243 57.4391 191.321 57.1576 191.296 57.0556L186.291 42.4774H190.252L193.225 52.7766L196.037 42.4774H199.823L195.154 56.2096C194.251 58.8576 193.538 60.4986 193.012 61.1351C192.487 61.7717 191.436 62.0899 189.86 62.0899C189.544 62.0899 189.289 62.088 189.097 62.0831C188.905 62.0793 188.618 62.0638 188.234 62.0383V59.1174Z" fill="#C7171D"/>
</svg>
